--40004LOG 14:40:07:959952600 Waiting for file /home/seluser/videos/vid_chrome_or_firefox_40004* to be created...
Won't start video recording due to VIDEO env var false
ffmpeg version 2.8.17-0ubuntu0.1 Copyright (c) 2000-2020 the FFmpeg developers
  built with gcc 5.4.0 (Ubuntu 5.4.0-6ubuntu1~16.04.12) 20160609
  configuration: --prefix=/usr --extra-version=0ubuntu0.1 --build-suffix=-ffmpeg --toolchain=hardened --libdir=/usr/lib/x86_64-linux-gnu --incdir=/usr/include/x86_64-linux-gnu --cc=cc --cxx=g++ --enable-gpl --enable-shared --disable-stripping --disable-decoder=libopenjpeg --disable-decoder=libschroedinger --enable-avresample --enable-avisynth --enable-gnutls --enable-ladspa --enable-libass --enable-libbluray --enable-libbs2b --enable-libcaca --enable-libcdio --enable-libflite --enable-libfontconfig --enable-libfreetype --enable-libfribidi --enable-libgme --enable-libgsm --enable-libmodplug --enable-libmp3lame --enable-libopenjpeg --enable-libopus --enable-libpulse --enable-librtmp --enable-libschroedinger --enable-libshine --enable-libsnappy --enable-libsoxr --enable-libspeex --enable-libssh --enable-libtheora --enable-libtwolame --enable-libvorbis --enable-libvpx --enable-libwavpack --enable-libwebp --enable-libx265 --enable-libxvid --enable-libzvbi --enable-openal --enable-opengl --enable-x11grab --enable-libdc1394 --enable-libiec61883 --enable-libzmq --enable-frei0r --enable-libx264 --enable-libopencv
  libavutil      54. 31.100 / 54. 31.100
  libavcodec     56. 60.100 / 56. 60.100
  libavformat    56. 40.101 / 56. 40.101
  libavdevice    56.  4.100 / 56.  4.100
  libavfilter     5. 40.101 /  5. 40.101
  libavresample   2.  1.  0 /  2.  1.  0
  libswscale      3.  1.101 /  3.  1.101
  libswresample   1.  2.101 /  1.  2.101
  libpostproc    53.  3.100 / 53.  3.100
Input #0, x11grab, from ':59.0':
  Duration: N/A, start: 1605703208.086614, bitrate: N/A
    Stream #0:0: Video: rawvideo (BGR[0] / 0x524742), bgr0, 1366x768, 10 fps, 10 tbr, 1000k tbn, 10 tbc
[libx264 @ 0x1cf7320] using cpu capabilities: MMX2 SSE2Fast SSSE3 SSE4.2 AVX FMA3 AVX2 LZCNT BMI2
[libx264 @ 0x1cf7320] profile Constrained Baseline, level 3.2
[libx264 @ 0x1cf7320] 264 - core 148 r2643 5c65704 - H.264/MPEG-4 AVC codec - Copyleft 2003-2015 - http://www.videolan.org/x264.html - options: cabac=0 ref=1 deblock=0:0:0 analyse=0:0 me=dia subme=0 psy=1 psy_rd=1.00:0.00 mixed_ref=0 me_range=16 chroma_me=1 trellis=0 8x8dct=0 cqm=0 deadzone=21,11 fast_pskip=1 chroma_qp_offset=0 threads=3 lookahead_threads=1 sliced_threads=0 nr=0 decimate=1 interlaced=0 bluray_compat=0 constrained_intra=0 bframes=0 weightp=0 keyint=250 keyint_min=10 scenecut=0 intra_refresh=0 rc=crf mbtree=0 crf=23.0 qcomp=0.60 qpmin=0 qpmax=69 qpstep=4 ip_ratio=1.40 aq=0
Output #0, matroska, to '/home/seluser/videos/vid_chrome_or_firefox_40004.mkv':
  Metadata:
    encoder         : Lavf56.40.101
    Stream #0:0: Video: h264 (libx264) (H264 / 0x34363248), yuv420p, 1366x768, q=-1--1, 10 fps, 1k tbn, 10 tbc
    Metadata:
      encoder         : Lavc56.60.100 libx264
Stream mapping:
  Stream #0:0 -> #0:0 (rawvideo (native) -> h264 (libx264))
Press [q] to stop, [?] for help
[swscaler @ 0x1d02ca0] Warning: data is not aligned! This can lead to a speedloss
frame=    8 fps=0.0 q=10.0 size=      26kB time=00:00:00.40 bitrate= 538.6kbits/s    
frame=   14 fps= 12 q=9.0 size=      28kB time=00:00:01.00 bitrate= 227.2kbits/s    
frame=   20 fps= 11 q=10.0 size=      56kB time=00:00:01.60 bitrate= 285.3kbits/s    
frame=   25 fps= 11 q=11.0 size=      64kB time=00:00:02.10 bitrate= 251.1kbits/s    
frame=   30 fps= 11 q=10.0 size=      74kB time=00:00:02.60 bitrate= 232.8kbits/s    
frame=   36 fps= 11 q=9.0 size=      76kB time=00:00:03.20 bitrate= 194.8kbits/s    
frame=   41 fps= 11 q=9.0 size=      77kB time=00:00:03.70 bitrate= 169.9kbits/s    
frame=   46 fps= 10 q=10.0 size=     102kB time=00:00:04.20 bitrate= 198.8kbits/s    
frame=   52 fps= 10 q=9.0 size=     107kB time=00:00:04.80 bitrate= 182.6kbits/s    
frame=   58 fps= 10 q=9.0 size=     108kB time=00:00:05.40 bitrate= 163.8kbits/s    
frame=   64 fps= 10 q=9.0 size=     109kB time=00:00:06.00 bitrate= 149.4kbits/s    
frame=   69 fps= 10 q=9.0 size=     110kB time=00:00:06.50 bitrate= 138.7kbits/s    
frame=   74 fps= 10 q=9.0 size=     111kB time=00:00:07.00 bitrate= 130.3kbits/s    
frame=   79 fps= 10 q=15.0 size=     172kB time=00:00:07.50 bitrate= 187.4kbits/s    
frame=   84 fps= 10 q=11.0 size=     196kB time=00:00:08.00 bitrate= 201.0kbits/s    
frame=   89 fps= 10 q=19.0 size=     226kB time=00:00:08.50 bitrate= 218.1kbits/s    
frame=   95 fps= 10 q=15.0 size=     337kB time=00:00:09.10 bitrate= 303.2kbits/s    
frame=  101 fps= 10 q=9.0 size=     394kB time=00:00:09.70 bitrate= 333.0kbits/s    
frame=  106 fps= 10 q=9.0 size=     407kB time=00:00:10.20 bitrate= 327.2kbits/s    
frame=  111 fps= 10 q=11.0 size=     408kB time=00:00:10.70 bitrate= 312.3kbits/s    
frame=  116 fps= 10 q=14.0 size=     506kB time=00:00:11.20 bitrate= 370.1kbits/s    
frame=  122 fps= 10 q=9.0 size=     605kB time=00:00:11.80 bitrate= 420.0kbits/s    
frame=  128 fps= 10 q=9.0 size=     617kB time=00:00:12.40 bitrate= 407.3kbits/s    
frame=  133 fps= 10 q=9.0 size=     617kB time=00:00:12.90 bitrate= 391.8kbits/s    
frame=  139 fps= 10 q=18.0 size=     617kB time=00:00:13.50 bitrate= 374.7kbits/s    
frame=  145 fps= 10 q=10.0 size=     665kB time=00:00:14.10 bitrate= 386.5kbits/s    
frame=  150 fps= 10 q=9.0 size=     670kB time=00:00:14.60 bitrate= 376.1kbits/s    
frame=  155 fps= 10 q=9.0 size=     671kB time=00:00:15.10 bitrate= 363.8kbits/s    
frame=  161 fps= 10 q=9.0 size=     671kB time=00:00:15.70 bitrate= 350.0kbits/s    
frame=  167 fps= 10 q=9.0 size=     671kB time=00:00:16.30 bitrate= 337.3kbits/s    
frame=  173 fps= 10 q=9.0 size=     671kB time=00:00:16.90 bitrate= 325.4kbits/s    
frame=  179 fps= 10 q=9.0 size=     672kB time=00:00:17.50 bitrate= 314.4kbits/s    
frame=  184 fps= 10 q=9.0 size=     672kB time=00:00:18.00 bitrate= 305.7kbits/s    
frame=  189 fps= 10 q=9.0 size=     672kB time=00:00:18.50 bitrate= 297.6kbits/s    
frame=  195 fps= 10 q=9.0 size=     672kB time=00:00:19.10 bitrate= 288.3kbits/s    
frame=  201 fps= 10 q=9.0 size=     672kB time=00:00:19.70 bitrate= 279.6kbits/s    
frame=  206 fps= 10 q=9.0 size=     673kB time=00:00:20.20 bitrate= 272.9kbits/s    
frame=  211 fps= 10 q=9.0 size=     673kB time=00:00:20.70 bitrate= 266.3kbits/s    
frame=  216 fps= 10 q=9.0 size=     673kB time=00:00:21.20 bitrate= 260.2kbits/s    
frame=  222 fps= 10 q=9.0 size=     674kB time=00:00:21.80 bitrate= 253.1kbits/s    
frame=  227 fps= 10 q=9.0 size=     674kB time=00:00:22.30 bitrate= 247.6kbits/s    
frame=  233 fps= 10 q=9.0 size=     674kB time=00:00:22.90 bitrate= 241.2kbits/s    
frame=  239 fps= 10 q=9.0 size=     674kB time=00:00:23.50 bitrate= 235.1kbits/s    
frame=  244 fps= 10 q=9.0 size=     675kB time=00:00:24.00 bitrate= 230.2kbits/s    
frame=  249 fps= 10 q=11.0 size=     681kB time=00:00:24.50 bitrate= 227.7kbits/s    
frame=  255 fps= 10 q=17.0 size=     843kB time=00:00:25.10 bitrate= 275.0kbits/s    
frame=  260 fps= 10 q=10.0 size=     849kB time=00:00:25.60 bitrate= 271.8kbits/s    
frame=  266 fps= 10 q=12.0 size=     878kB time=00:00:26.20 bitrate= 274.7kbits/s    
frame=  272 fps= 10 q=9.0 size=     891kB time=00:00:26.80 bitrate= 272.3kbits/s    
frame=  277 fps= 10 q=9.0 size=     892kB time=00:00:27.30 bitrate= 267.7kbits/s    
frame=  283 fps= 10 q=16.0 size=    1015kB time=00:00:27.90 bitrate= 298.0kbits/s    
frame=  288 fps= 10 q=10.0 size=    1060kB time=00:00:28.40 bitrate= 305.7kbits/s    
frame=  294 fps= 10 q=9.0 size=    1073kB time=00:00:29.00 bitrate= 303.1kbits/s    
frame=  300 fps= 10 q=9.0 size=    1074kB time=00:00:29.60 bitrate= 297.1kbits/s    
frame=  306 fps= 10 q=9.0 size=    1074kB time=00:00:30.20 bitrate= 291.4kbits/s    
frame=  311 fps= 10 q=9.0 size=    1075kB time=00:00:30.70 bitrate= 286.8kbits/s    
frame=  316 fps= 10 q=9.0 size=    1075kB time=00:00:31.20 bitrate= 282.3kbits/s    
frame=  322 fps= 10 q=9.0 size=    1076kB time=00:00:31.80 bitrate= 277.2kbits/s    
frame=  328 fps= 10 q=9.0 size=    1077kB time=00:00:32.40 bitrate= 272.2kbits/s    
frame=  334 fps= 10 q=9.0 size=    1077kB time=00:00:33.00 bitrate= 267.4kbits/s    
frame=  339 fps= 10 q=9.0 size=    1078kB time=00:00:33.50 bitrate= 263.5kbits/s    
frame=  344 fps= 10 q=9.0 size=    1078kB time=00:00:34.00 bitrate= 259.8kbits/s    
frame=  350 fps= 10 q=9.0 size=    1079kB time=00:00:34.60 bitrate= 255.4kbits/s    
frame=  356 fps= 10 q=9.0 size=    1079kB time=00:00:35.20 bitrate= 251.2kbits/s    
frame=  361 fps= 10 q=9.0 size=    1080kB time=00:00:35.70 bitrate= 247.8kbits/s    
frame=  366 fps= 10 q=9.0 size=    1080kB time=00:00:36.20 bitrate= 244.5kbits/s    
frame=  371 fps= 10 q=9.0 size=    1081kB time=00:00:36.70 bitrate= 241.2kbits/s    
frame=  377 fps= 10 q=9.0 size=    1081kB time=00:00:37.30 bitrate= 237.5kbits/s    
frame=  382 fps= 10 q=15.0 size=    1082kB time=00:00:37.80 bitrate= 234.5kbits/s    
frame=  388 fps= 10 q=9.0 size=    1112kB time=00:00:38.40 bitrate= 237.3kbits/s    
--40004LOG 14:40:47:276481400 Trapped SIGTERM or SIGINT so shutting down ffmpeg gracefully...
--40004LOG 14:40:47:285356800 Will kill VID_TOOL_PID=594 ...
frame=  393 fps= 10 q=-1.0 Lsize=    1119kB time=00:00:39.30 bitrate= 233.2kbits/s    
video:1115kB audio:0kB subtitle:0kB other streams:0kB global headers:0kB muxing overhead: 0.300022%
[libx264 @ 0x1cf7320] frame I:2     Avg QP:13.50  size: 78048
[libx264 @ 0x1cf7320] frame P:391   Avg QP:10.17  size:  2521
[libx264 @ 0x1cf7320] mb I  I16..4: 100.0%  0.0%  0.0%
[libx264 @ 0x1cf7320] mb P  I16..4:  2.6%  0.0%  0.0%  P16..4:  2.2%  0.0%  0.0%  0.0%  0.0%    skip:95.2%
[libx264 @ 0x1cf7320] coded y,uvDC,uvAC intra: 12.7% 8.0% 7.4% inter: 1.0% 1.0% 0.7%
[libx264 @ 0x1cf7320] i16 v,h,dc,p: 77% 21%  1%  1%
[libx264 @ 0x1cf7320] i8c dc,h,v,p: 84% 13%  2%  0%
[libx264 @ 0x1cf7320] kb/s:232.40
Exiting normally, received signal 2.
--40004LOG 14:40:48:307188000 Tried to kill -SIGTERM VID_TOOL_PID=594
--40004LOG 14:40:48:310818500 Waiting up to 6s for VID_TOOL_PID=594 to end with SIGTERM...
--40004LOG 14:40:48:316309700 wait_pid successfully managed to SIGTERM:VID_TOOL_PID=594 within less than 6s
--40004LOG 14:40:48:318939000 Will try to fix the videos...
--40004LOG 14:40:48:826683600 Fixing perms for /home/seluser/videos/vid_chrome_or_firefox_40004.mkv*
--40004LOG 14:40:48:833957900 Changing video encoding from mkv to mp4...
--40004LOG 14:40:54:036632000 Conversion from mkv to mp4 succeeded!
--40004LOG 14:40:54:060024600 Cleaning up /home/seluser/videos/vid_chrome_or_firefox_40004.mkv ...
--40004LOG 14:40:54:078780500 Optimizing /home/seluser/videos/vid_chrome_or_firefox_40004.mp4 for HTTP streaming...
--40004LOG 14:40:54:142235700 Succeeded to mp4box_retry.sh within 8s
--40004LOG 14:40:54:157456900 ffmpeg shutdown complete.
